<svg xmlns="http://www.w3.org/2000/svg" viewBox="0 0 1440 320">
  <path fill="#000000" fill-opacity="1" d="M0,160L26.7,133.3C53.3,107,107,53,160,37.3C213.3,21,267,43,320,74.7C373.3,107,427,149,480,154.7C533.3,160,587,128,640,133.3C693.3,139,747,181,800,186.7C853.3,192,907,160,960,149.3C1013.3,139,1067,149,1120,160C1173.3,171,1227,181,1280,165.3C1333.3,149,1387,107,1413,85.3L1440,64L1440,320L1413.3,320C1386.7,320,1333,320,1280,320C1226.7,320,1173,320,1120,320C1066.7,320,1013,320,960,320C906.7,320,853,320,800,320C746.7,320,693,320,640,320C586.7,320,533,320,480,320C426.7,320,373,320,320,320C266.7,320,213,320,160,320C106.7,320,53,320,27,320L0,320Z"></path>
</svg>